<svg width="64" height="64" viewBox="0 0 64 64" fill="none" xmlns="http://www.w3.org/2000/svg">
<rect width="64" height="64" rx="17" fill="#13ABA2"/>
<path d="M29.9219 41.8438C29.3177 42.1354 28.7344 42.3802 28.1719 42.5781C27.6198 42.776 27.0677 42.9375 26.5156 43.0625C25.974 43.1875 25.4219 43.276 24.8594 43.3281C24.3073 43.3906 23.7344 43.4219 23.1406 43.4219C22.0885 43.4219 21.0625 43.3073 20.0625 43.0781C19.0729 42.849 18.1354 42.5156 17.25 42.0781C16.3646 41.6302 15.5521 41.0781 14.8125 40.4219C14.0729 39.7552 13.4323 38.9896 12.8906 38.125C12.3594 37.25 11.9427 36.2812 11.6406 35.2188C11.349 34.1562 11.2031 32.9948 11.2031 31.7344C11.2031 30.3802 11.3646 29.1354 11.6875 28C12.0104 26.8646 12.4583 25.8438 13.0312 24.9375C13.6042 24.0208 14.2865 23.224 15.0781 22.5469C15.8802 21.8594 16.7604 21.2865 17.7188 20.8281C18.6771 20.3698 19.6927 20.026 20.7656 19.7969C21.849 19.5677 22.9583 19.4531 24.0938 19.4531C26 19.4531 27.8125 19.7396 29.5312 20.3125L29.5 26.2656H28.8594L26.9375 21.8438C25.9062 21.5104 24.8229 21.3438 23.6875 21.3438C22.5312 21.3438 21.4167 21.5417 20.3438 21.9375C19.2708 22.3229 18.3229 22.9271 17.5 23.75C16.6771 24.5729 16.0156 25.6302 15.5156 26.9219C15.026 28.2135 14.7812 29.7552 14.7812 31.5469C14.7812 33.224 15.0208 34.6979 15.5 35.9688C15.9792 37.2292 16.6302 38.2865 17.4531 39.1406C18.2865 39.9948 19.2552 40.6406 20.3594 41.0781C21.4635 41.5052 22.6354 41.7188 23.875 41.7188C24.9583 41.7188 26.0156 41.5677 27.0469 41.2656V33.6875L22.9844 32.8906V31.9219H29.9219L30.5625 32.5625L29.9219 34.5469V41.8438ZM48.9219 43L44 33.3438C43.6979 33.3854 43.3854 33.4167 43.0625 33.4375C42.75 33.4583 42.4271 33.4688 42.0938 33.4688C41.7083 33.4688 41.3125 33.4531 40.9062 33.4219C40.5104 33.3906 40.099 33.349 39.6719 33.2969V41.2344L43.2031 42.3594V43H33.9219V42.3594L36.7969 41.2344V21.7188L33.9219 20.5938V19.9531H42.7188C44.0729 19.9531 45.276 20.1094 46.3281 20.4219C47.3802 20.724 48.2656 21.1562 48.9844 21.7188C49.7135 22.2812 50.2656 22.9583 50.6406 23.75C51.0156 24.5312 51.2031 25.401 51.2031 26.3594C51.2031 27.7656 50.8385 29.0156 50.1094 30.1094C49.3906 31.1927 48.3229 32.0208 46.9062 32.5938L51.4531 41.4688L53.75 42.3594V43H48.9219ZM43.1719 21.5938H39.6719V31.6406C40.099 31.6927 40.5 31.7344 40.875 31.7656C41.2604 31.7865 41.6354 31.7969 42 31.7969C46.0208 31.7969 48.0312 30.0677 48.0312 26.6094C48.0312 24.9323 47.6146 23.6771 46.7812 22.8438C45.9479 22.0104 44.7448 21.5938 43.1719 21.5938Z" fill="white"/>
</svg>
